<?xml version="1.0" standalone="no"?><svg xmlns="http://www.w3.org/2000/svg" viewBox="0 0 1440 320"><path fill="#88C8F0" fill-opacity="1" d="M0,160L20,154.7C40,149,80,139,120,133.3C160,128,200,128,240,117.3C280,107,320,85,360,101.3C400,117,440,171,480,208C520,245,560,267,600,240C640,213,680,139,720,138.7C760,139,800,213,840,202.7C880,192,920,96,960,58.7C1000,21,1040,43,1080,90.7C1120,139,1160,213,1200,213.3C1240,213,1280,139,1320,106.7C1360,75,1400,85,1420,90.7L1440,96L1440,320L1420,320C1400,320,1360,320,1320,320C1280,320,1240,320,1200,320C1160,320,1120,320,1080,320C1040,320,1000,320,960,320C920,320,880,320,840,320C800,320,760,320,720,320C680,320,640,320,600,320C560,320,520,320,480,320C440,320,400,320,360,320C320,320,280,320,240,320C200,320,160,320,120,320C80,320,40,320,20,320L0,320Z"></path></svg>