<?xml version="1.0" standalone="no"?><svg xmlns="http://www.w3.org/2000/svg" viewBox="0 0 1440 320"><path fill="#A58DD2" fill-opacity="1" d="M0,128L21.8,122.7C43.6,117,87,107,131,128C174.5,149,218,203,262,218.7C305.5,235,349,213,393,186.7C436.4,160,480,128,524,133.3C567.3,139,611,181,655,202.7C698.2,224,742,224,785,234.7C829.1,245,873,267,916,261.3C960,256,1004,224,1047,181.3C1090.9,139,1135,85,1178,101.3C1221.8,117,1265,203,1309,213.3C1352.7,224,1396,160,1418,128L1440,96L1440,320L1418.2,320C1396.4,320,1353,320,1309,320C1265.5,320,1222,320,1178,320C1134.5,320,1091,320,1047,320C1003.6,320,960,320,916,320C872.7,320,829,320,785,320C741.8,320,698,320,655,320C610.9,320,567,320,524,320C480,320,436,320,393,320C349.1,320,305,320,262,320C218.2,320,175,320,131,320C87.3,320,44,320,22,320L0,320Z"></path></svg>